<svg xmlns="http://www.w3.org/2000/svg" aria-hidden="true" style="width: 0px; height: 0px; overflow: hidden; position: absolute;"><symbol id="sousuo" viewBox="0 0 1024 1024"><path d="M 719.678 653.559 l 0.710809 0.701457 l 191.778 191.778 c 18.2566 18.2566 18.2566 47.8627 0 66.124 c -18.2659 18.2613 -47.8721 18.2613 -66.1333 0 l -191.778 -191.778 c -0.233819 -0.233819 -0.467638 -0.467638 -0.696781 -0.71081 c -58.1321 44.2526 -130.691 70.5198 -209.39 70.5198 C 253.064 790.198 98.1405 635.279 98.1405 444.174 S 253.064 98.1405 444.169 98.1405 c 191.105 0 346.029 154.924 346.029 346.029 c 0 78.6988 -26.2719 151.257 -70.5198 209.39 Z m -275.509 43.1162 c 139.454 0 252.506 -113.051 252.506 -252.506 s -113.051 -252.506 -252.506 -252.506 s -252.506 113.051 -252.506 252.506 s 113.051 252.506 252.506 252.506 Z"/></symbol><symbol id="gonggong_csdnlogo_" viewBox="0 0 4096 1024"><path fill="#262626" d="M 1234.16 690.463 c 62.9696 23.0232 194.307 45.9114 300.516 45.9114 c 114.441 0 178.14 -31.6872 183.241 -80.8645 c 4.64242 -44.8588 -42.2137 -50.9317 -171.446 -81.5393 c -178.571 -43.7791 -292.5 -111.553 -281.326 -219.867 c 12.9826 -125.75 181.27 -220.785 439.492 -220.785 c 125.885 0 247.938 8.87999 311.177 29.6089 l -21.7006 158.571 c -41.0531 -14.2782 -198.194 -34.1164 -304.484 -34.1164 c -107.774 0 -163.564 33.9005 -167.424 71.0669 c -4.85835 47.045 51.1476 49.2313 191.149 86.5056 c 189.584 48.0977 272.473 115.818 261.622 220.812 c -12.7127 123.51 -164.131 228.531 -466.483 228.531 c -125.858 0 -234.334 -22.9692 -294.092 -45.9384 l 19.7303 -157.869 Z M 3010.83 172.752 c 688.401 -129.799 747.808 103.429 726.539 309.801 l -40.0814 381.785 h -218.518 l 36.5726 -348.209 c 7.90832 -76.681 57.1396 -226.669 -180.542 -221.055 c -82.2681 1.99732 -123.051 13.2795 -123.051 13.2795 s -7.15257 92.6595 -15.8166 161.135 l -41.4309 394.849 h -214.307 l 42.5376 -389.154 l 28.0975 -302.432 Z m -869.483 -18.0569 c 49.1233 -5.34419 124.59 -10.7693 228.45 -10.7693 c 173.389 0 313.58 30.1758 400.382 93.6312 c 77.9495 59.1639 129.826 154.954 115.467 293.741 c -13.2525 129.151 -80.4057 219.57 -178.167 275.495 c -89.4476 52.7401 -202.161 75.2774 -371.664 75.2774 c -99.9471 0 -195.279 -5.39817 -267.776 -16.1405 L 2141.38 154.695 Z m 143.267 569.858 c 16.7073 3.2389 38.6779 6.45081 81.9982 6.45081 c 173.443 0 295.739 -85.2371 308.019 -205.076 c 17.8409 -173.227 -90.6352 -233.795 -273.39 -232.742 c -23.671 0 -56.5728 0 -73.9819 3.18492 l -42.6725 428.156 Z"/><path fill="#ca0c16" d="M 1109.87 870.303 c -41.107 14.2512 -126.263 23.9679 -245.239 23.9679 c -342.136 0 -526.807 -160.595 -504.972 -372.905 C 385.785 268.408 659.364 126.085 958.908 126.085 c 116.007 0 184.32 9.33883 248.316 24.9935 l -20.54 170.42 c -42.5645 -14.3321 -142.323 -27.5037 -223.079 -27.5037 c -176.25 0 -325.941 52.4972 -343.108 218.572 c -15.3038 148.504 89.7715 219.489 288.046 219.489 c 69.0156 0 170.771 -9.87865 217.816 -24.1568 l -16.4914 162.404 Z"/></symbol><symbol id="gonggong_csdnlogodanse_" viewBox="0 0 4096 1024"><path d="M 1229.42 690.463 c 62.9696 23.0232 194.307 45.9114 300.516 45.9114 c 114.441 0 178.14 -31.6872 183.241 -80.8645 c 4.64242 -44.8588 -42.2137 -50.9317 -171.446 -81.5393 c -178.571 -43.7791 -292.5 -111.553 -281.326 -219.867 c 12.9826 -125.75 181.27 -220.785 439.492 -220.785 c 125.885 0 247.938 8.87999 311.177 29.6089 l -21.7006 158.571 c -41.0531 -14.2782 -198.194 -34.1164 -304.484 -34.1164 c -107.774 0 -163.564 33.9005 -167.424 71.0669 c -4.85835 47.045 51.1476 49.2313 191.149 86.5056 c 189.584 48.0977 272.473 115.818 261.622 220.812 c -12.7127 123.51 -164.131 228.531 -466.483 228.531 c -125.858 0 -234.334 -22.9692 -294.092 -45.9384 l 19.7303 -157.869 Z M 3006.09 172.752 c 688.401 -129.799 747.808 103.429 726.539 309.801 l -40.0814 381.785 h -218.518 l 36.5726 -348.209 c 7.90832 -76.681 57.1396 -226.669 -180.542 -221.055 c -82.2681 1.99732 -123.051 13.2795 -123.051 13.2795 s -7.15257 92.6595 -15.8166 161.135 l -41.4309 394.849 h -214.307 l 42.5376 -389.154 l 28.0975 -302.432 Z m -869.483 -18.0569 c 49.1233 -5.34419 124.59 -10.7693 228.45 -10.7693 c 173.389 0 313.58 30.1758 400.382 93.6312 c 77.9495 59.1639 129.826 154.954 115.467 293.741 c -13.2525 129.151 -80.4057 219.57 -178.167 275.495 c -89.4476 52.7401 -202.161 75.2774 -371.664 75.2774 c -99.9471 0 -195.279 -5.39817 -267.776 -16.1405 L 2136.64 154.695 Z m 143.267 569.858 c 16.7073 3.2389 38.6779 6.45081 81.9982 6.45081 c 173.443 0 295.739 -85.2371 308.019 -205.076 c 17.8409 -173.227 -90.6352 -233.795 -273.39 -232.742 c -23.671 0 -56.5728 0 -73.9819 3.18492 l -42.6725 428.156 Z m -1174.75 145.751 c -41.107 14.2512 -126.263 23.9679 -245.239 23.9679 c -342.136 0 -526.807 -160.595 -504.972 -372.905 C 381.044 268.408 654.623 126.085 954.167 126.085 c 116.007 0 184.32 9.33883 248.316 24.9935 l -20.54 170.42 c -42.5645 -14.3321 -142.323 -27.5037 -223.079 -27.5037 c -176.25 0 -325.941 52.4972 -343.108 218.572 c -15.3038 148.504 89.7715 219.489 288.046 219.489 c 69.0156 0 170.771 -9.87865 217.816 -24.1568 l -16.4914 162.404 Z"/></symbol><symbol id="xieboke1" viewBox="0 0 1024 1024"><path fill="#ca0c16" d="M 204.7 751.898 h 657.992 a 33.6933 33.6933 0 0 1 0 67.3354 H 163.685 a 33.5397 33.5397 0 0 1 -18.7413 -5.68382 c -18.6388 -9.42183 -18.178 -29.4432 -15.2081 -39.1723 C 199.068 570.272 309.416 409.589 435.381 290.126 A 243.227 243.227 0 0 1 536.973 234.209 c 138.102 -33.7957 228.326 -29.9553 318.601 -28.5215 c -17.1539 20.4822 -36.2024 41.6302 -57.2991 62.9317 c -3.17475 3.22595 -164.677 19.919 -187.976 47.0579 c -23.2985 27.139 129.601 7.37361 125.198 11.1116 c -21.66 18.3316 -44.9073 36.4072 -69.9469 53.8683 c -4.50609 3.17475 -149.52 -0.358439 -174.611 27.8558 c -25.1932 28.1631 101.899 18.1268 96.0617 21.4039 c -67.4378 37.6361 -125.966 64.6215 -212.708 93.8087 c -57.6575 19.4069 -121.818 133.135 -146.55 179.066 a 435.76 435.76 0 0 0 -23.0425 49.1062 Z"/></symbol><symbol id="gitchat" viewBox="0 0 1024 1024"><path fill="#ff9100" d="M 892.09 729.086 h -108.597 v -162.896 H 403.403 v -108.597 h 488.687 v 271.493 Z m -651.582 54.2985 V 783.493 h 488.687 v 108.597 H 131.91 V 131.91 h 760.179 v 217.194 h -108.597 V 240.507 H 240.507 v 542.877 Z m 542.985 0 h 108.597 v 108.597 h -108.597 v -108.597 Z"/></symbol><symbol id="toolbar-memberhead" viewBox="0 0 1303 1024"><path fill="#fdd840" d="M 1061.51 433.795 A 78.5188 78.5188 0 1 1 1129.35 472.741 h -1.80593 l -48.0535 403.979 c -4.55409 38.1601 -39.4164 67.1336 -80.7958 67.1336 H 319.352 c -41.3009 0 -76.0062 -28.8164 -80.7173 -66.9765 L 189.011 472.741 H 187.126 a 78.5188 78.5188 0 1 1 67.7617 -38.8668 l 193.313 119.82 l 158.137 -336.06 A 78.5973 78.5973 0 0 1 658.239 80.1466 a 78.5188 78.5188 0 0 1 51.5868 137.722 l 158.137 335.825 l 193.549 -119.898 Z"/><path fill="#ffbe00" d="M 1050.83 394.222 a 78.5188 78.5188 0 1 1 78.5188 78.5188 h -1.80593 l -48.0535 403.979 c -4.55409 38.1601 -39.4164 67.1336 -80.7958 67.1336 H 659.024 C 658.475 793.254 658.239 505.326 658.239 80.1466 a 78.5188 78.5188 0 0 1 51.5868 137.722 l 158.137 335.825 l 193.549 -119.898 A 78.5188 78.5188 0 0 1 1050.83 394.222 Z"/></symbol><symbol id="toolbar-m-memberhead" viewBox="0 0 1303 1024"><path fill="#d6d6d6" d="M 1062.75 433.795 A 78.5188 78.5188 0 1 1 1130.59 472.741 h -1.80593 l -48.0535 403.979 c -4.55409 38.1601 -39.4164 67.1336 -80.7958 67.1336 H 320.589 c -41.3009 0 -76.0062 -28.8164 -80.7173 -66.9765 L 190.247 472.741 H 188.363 a 78.5188 78.5188 0 1 1 67.7617 -38.8668 l 193.313 119.82 l 158.137 -336.06 A 78.5973 78.5973 0 0 1 659.476 80.1466 a 78.5188 78.5188 0 0 1 51.5868 137.722 l 158.137 335.825 l 193.549 -119.898 Z"/><path fill="#c1c1c1" d="M 1052.07 394.222 a 78.5188 78.5188 0 1 1 78.5188 78.5188 h -1.80593 l -48.0535 403.979 c -4.55409 38.1601 -39.4164 67.1336 -80.7958 67.1336 H 660.261 C 659.711 793.254 659.476 505.326 659.476 80.1466 a 78.5188 78.5188 0 0 1 51.5868 137.722 l 158.137 335.825 l 193.549 -119.898 A 78.5188 78.5188 0 0 1 1052.07 394.222 Z"/></symbol><symbol id="csdnc-upload" viewBox="0 0 1024 1024"><path d="M 216.375 723.161 v 84.4644 h 591.251 v -84.4644 c 0 -23.3248 18.9074 -42.2322 42.2322 -42.2322 s 42.2322 18.9074 42.2322 42.2322 v 84.4644 c 0 46.6497 -37.8147 84.4644 -84.4644 84.4644 H 216.375 c -46.6497 0 -84.4644 -37.8147 -84.4644 -84.4644 v -84.4644 c 0 -23.3248 18.9074 -42.2322 42.2322 -42.2322 s 42.2322 18.9074 42.2322 42.2322 Z M 469.768 275.55 L 246.554 499.533 a 42.3082 42.3082 0 0 1 -59.9908 0 c -16.5635 -16.6226 -16.5635 -43.571 0 -60.1935 L 480.512 144.381 A 42.2195 42.2195 0 0 1 512 131.94 a 42.2026 42.2026 0 0 1 31.4841 12.4416 l 293.953 294.958 c 16.5635 16.6226 16.5635 43.571 0 60.1935 a 42.3082 42.3082 0 0 1 -59.9908 0 L 554.232 275.55 V 680.929 c 0 23.3248 -18.9074 42.2322 -42.2322 42.2322 s -42.2322 -18.9074 -42.2322 -42.2322 V 275.55 Z"/></symbol></svg>